<?xml version="1.0" standalone="no"?><svg xmlns="http://www.w3.org/2000/svg" viewBox="0 0 1440 320"><path fill="#10121f" fill-opacity="1" d="M0,128L34.3,117.3C68.6,107,137,85,206,112C274.3,139,343,213,411,245.3C480,277,549,267,617,224C685.7,181,754,107,823,101.3C891.4,96,960,160,1029,165.3C1097.1,171,1166,117,1234,101.3C1302.9,85,1371,107,1406,117.3L1440,128L1440,0L1405.7,0C1371.4,0,1303,0,1234,0C1165.7,0,1097,0,1029,0C960,0,891,0,823,0C754.3,0,686,0,617,0C548.6,0,480,0,411,0C342.9,0,274,0,206,0C137.1,0,69,0,34,0L0,0Z"></path></svg>