<?xml version="1.0" standalone="no"?><svg xmlns="http://www.w3.org/2000/svg" viewBox="0 0 1440 320"><path fill="#131626" fill-opacity="1" d="M0,192L24,176C48,160,96,128,144,106.7C192,85,240,75,288,69.3C336,64,384,64,432,90.7C480,117,528,171,576,186.7C624,203,672,181,720,149.3C768,117,816,75,864,58.7C912,43,960,53,1008,69.3C1056,85,1104,107,1152,112C1200,117,1248,107,1296,101.3C1344,96,1392,96,1416,96L1440,96L1440,0L1416,0C1392,0,1344,0,1296,0C1248,0,1200,0,1152,0C1104,0,1056,0,1008,0C960,0,912,0,864,0C816,0,768,0,720,0C672,0,624,0,576,0C528,0,480,0,432,0C384,0,336,0,288,0C240,0,192,0,144,0C96,0,48,0,24,0L0,0Z"></path></svg>